<?xml version="1.0" encoding="UTF-8" standalone="no"?>
<!-- Created with Inkscape (http://www.inkscape.org/) -->

<svg
   width="144.49779mm"
   height="101.59995mm"
   viewBox="0 0 144.49779 101.59995"
   version="1.1"
   id="svg1"
   xml:space="preserve"
   sodipodi:docname="landingpage.svg"
   xmlns:inkscape="http://www.inkscape.org/namespaces/inkscape"
   xmlns:sodipodi="http://sodipodi.sourceforge.net/DTD/sodipodi-0.dtd"
   xmlns="http://www.w3.org/2000/svg"
   xmlns:svg="http://www.w3.org/2000/svg"><sodipodi:namedview
     id="namedview1"
     pagecolor="#505050"
     bordercolor="#eeeeee"
     borderopacity="1"
     inkscape:showpageshadow="0"
     inkscape:pageopacity="0"
     inkscape:pagecheckerboard="0"
     inkscape:deskcolor="#505050"
     inkscape:document-units="mm"><inkscape:page
       x="0"
       y="0"
       width="144.49779"
       height="101.59995"
       id="page1"
       margin="0"
       bleed="0" /></sodipodi:namedview><defs
     id="defs1" /><g
     inkscape:label="Camada 1"
     inkscape:groupmode="layer"
     id="layer1"
     transform="translate(-190.55012,154.24526)"><path
       style="fill:#45b8ed;fill-opacity:1"
       d="m 231.19013,-70.707514 v -18.06222 h -9.31333 -9.31333 v -2.11281 -2.11281 l 9.24277,-0.0744 9.24278,-0.0744 0.0853,-1.48167 0.0853,-1.48167 h -15.11364 -15.11363 v -2.25777 -2.257776 h 15.09888 15.09889 v -1.41111 -1.41111 h -15.09889 -15.09888 v -2.25778 -2.25778 h 15.09888 15.09889 v -2.11667 -2.11666 h -16.22777 -16.22778 v -9.59556 -9.59555 h 16.22778 16.22777 v -1.83445 -1.83444 H 213.1279 195.06568 v 33.16111 33.161106 h 16.22778 16.22777 v 2.11667 2.11666 h -18.48555 -18.48556 v -37.535546 -37.53556 h 20.32 20.32 v -7.33777 -7.33778 h 31.60889 31.60889 v 7.33778 7.33777 h 20.32 20.32 v 37.53369 37.533686 l -20.24945,0.0724 -20.24944,0.0724 -0.0763,5.85611 -0.0763,5.85611 h -31.60317 -31.60316 z m 58.91909,7.12611 0.0758,-6.56166 h -27.38076 -27.38075 v 6.44407 c 0,3.54424 0.0853,6.52937 0.18955,6.63363 0.10425,0.10425 12.3915,0.15717 27.305,0.11759 l 27.11544,-0.072 z m -34.64798,-0.0705 v -2.25778 h 7.33778 7.33778 v 2.25778 2.25778 h -7.33778 -7.33778 z m 75.07111,-21.59 V -101.7519 h -18.06222 -18.06222 v 16.509996 16.51 h 18.06222 18.06222 z m -31.31813,8.52696 c -1.11849,-0.56272 -1.59221,-1.64346 -1.16863,-2.66607 0.33669,-0.81285 1.30891,-1.48645 2.14542,-1.48645 0.21687,0 0.74006,0.2974 1.16264,0.66089 1.82867,1.57295 -0.005,4.56551 -2.13943,3.49163 z m 5.91813,-1.89474 v -2.26433 l 11.07722,0.0738 11.07723,0.0738 v 2.11667 2.11667 l -11.07723,0.0738 -11.07722,0.0738 z m -6.10613,-5.97453 c -0.60866,-0.29472 -1.23165,-1.3399 -1.23165,-2.06634 0,-0.81409 1.28916,-1.93098 2.2288,-1.93098 1.98384,0 2.84226,2.36597 1.33028,3.66652 -0.82721,0.71153 -1.37913,0.78998 -2.32743,0.3308 z m 6.10613,-1.92769 v -2.26433 l 11.07722,0.0738 11.07723,0.0738 v 2.11667 2.11667 l -11.07723,0.0738 -11.07722,0.0738 z m -6.43448,-6.2167 c -1.49484,-1.39266 -0.81981,-3.43878 1.19055,-3.60873 1.67734,-0.14181 2.66793,1.13267 2.11444,2.72041 -0.49022,1.40624 -2.24329,1.87744 -3.30499,0.88832 z m 6.49317,-1.61497 0.0824,-2.18722 h 11.00667 11.00667 l 0.0824,2.18722 0.0824,2.18723 h -11.17152 -11.17152 z m -15.01646,-13.474606 v -33.15961 l -25.47056,-0.072 -25.47055,-0.0721 v -2.11667 -2.11666 l 25.48239,-0.0721 25.4824,-0.0721 -0.0824,-2.18572 -0.0824,-2.18572 h -27.23444 -27.23444 l -0.0716,37.60611 -0.0716,37.606106 h 27.37658 27.37659 z m -51.64667,24.975166 v -2.25778 h 11.00667 11.00666 v 2.25778 2.25778 h -11.00666 -11.00667 z m 26.52889,0 v -2.25778 h 11.00666 11.00667 v 2.25778 2.25778 H 276.06346 265.0568 Z M 238.52791,-100.4819 v -11.14778 h 11.00667 11.00666 v 11.14778 11.147776 h -11.00666 -11.00667 z m 12.76773,4.871156 -1.76106,-1.76107 -1.76107,1.76107 -1.76107,1.76106 h 3.52214 3.52213 z m -6.49614,-3.23987 1.63128,-1.614266 -1.61427,-1.63129 c -0.88784,-0.8972 -1.71349,-1.63129 -1.83477,-1.63129 -0.12127,0 -0.2205,1.4605 -0.2205,3.24556 0,1.785056 0.0916,3.245556 0.20349,3.245556 0.11191,0 0.93756,-0.72642 1.83477,-1.61427 z m 11.50841,-1.631286 c 0,-1.78506 -0.0916,-3.24556 -0.20348,-3.24556 -0.11192,0 -0.93757,0.72642 -1.83477,1.61427 l -1.63129,1.61426 1.61427,1.631286 c 0.88785,0.89721 1.71349,1.6313 1.83477,1.6313 0.12127,0 0.2205,-1.4605 0.2205,-3.245556 z m -4.93889,-4.93889 1.67567,-1.69333 h -3.51011 -3.51011 l 1.67566,1.69333 c 0.92162,0.93133 1.74712,1.69333 1.83445,1.69333 0.0873,0 0.91283,-0.762 1.83444,-1.69333 z m 13.68778,4.93889 v -11.14778 h 11.00666 11.00667 v 11.14778 11.147776 H 276.06346 265.0568 Z m 12.76773,4.871156 -1.76107,-1.76107 -1.76106,1.76107 -1.76107,1.76106 h 3.52213 3.52214 z m -6.49615,-3.23987 1.63129,-1.614266 -1.61427,-1.63129 c -0.88785,-0.8972 -1.71349,-1.63129 -1.83477,-1.63129 -0.12127,0 -0.2205,1.4605 -0.2205,3.24556 0,1.785056 0.0916,3.245556 0.20348,3.245556 0.11192,0 0.93757,-0.72642 1.83477,-1.61427 z m 11.50842,-1.631286 c 0,-1.78506 -0.0916,-3.24556 -0.20349,-3.24556 -0.11191,0 -0.93756,0.72642 -1.83477,1.61427 l -1.63128,1.61426 1.61427,1.631286 c 0.88784,0.89721 1.71349,1.6313 1.83477,1.6313 0.12127,0 0.2205,-1.4605 0.2205,-3.245556 z m -4.93889,-4.93889 1.67566,-1.69333 h -3.51011 -3.5101 l 1.67566,1.69333 c 0.92162,0.93133 1.74712,1.69333 1.83444,1.69333 0.0873,0 0.91283,-0.762 1.83445,-1.69333 z m -39.37,-20.03778 v -9.59555 h 24.27111 24.27111 v 9.59555 9.59556 h -24.27111 -24.27111 z m 44.2447,-0.0705 -0.0769,-5.15056 h -19.89667 -19.89667 l -0.0769,5.15056 -0.0769,5.15055 h 20.05051 20.05051 z m 47.75974,9.66611 v -9.59556 H 314.30457 298.0768 v -2.11666 -2.11667 h 16.22777 16.22778 v -2.68111 -2.68111 h -18.06222 -18.06222 v 14.39333 14.39333 h 18.06222 18.06222 z m -20.46111,7.82663 c -3.58217,-1.4768 -5.50333,-4.15974 -5.50333,-7.68552 0,-2.25551 0.74471,-4.02708 2.38048,-5.66285 2.54622,-2.54622 5.94811,-3.10957 9.14149,-1.51382 2.02968,1.01425 3.21919,2.33989 4.03392,4.49556 1.39718,3.69681 -0.37816,8.03179 -4.06283,9.92048 -1.42824,0.73209 -4.70425,0.9761 -5.98973,0.44615 z m 4.57254,-4.73514 c 2.05158,-1.28123 1.94157,-4.61613 -0.20179,-6.1174 -0.93677,-0.65614 -2.8444,-0.58173 -3.87355,0.15109 -1.99398,1.41984 -2.20849,3.82582 -0.49397,5.54035 1.29609,1.29608 2.93184,1.44857 4.56931,0.42596 z m -83.51784,-9.08871 -0.0769,-5.15056 h -13.97 -13.97 l -0.0769,5.15056 -0.0769,5.15055 h 14.12384 14.12385 z m -27.27253,49.154826 c -1.1554,-0.22639 -2.81843,-1.23892 -3.65265,-2.22391 -2.13584,-2.52186 -1.90265,-6.35913 0.53523,-8.80747 4.09617,-4.11376 11.07748,-1.23723 11.07355,4.56266 -0.003,4.31846 -3.67849,7.30688 -7.95613,6.46872 z m 2.93733,-4.90367 c 1.18844,-1.18844 0.79089,-2.91313 -0.81194,-3.52253 -2.12938,-0.80959 -3.74663,1.8253 -2.15816,3.51615 0.857,0.91223 2.06166,0.91482 2.9701,0.006 z m 13.313,4.89584 c -2.48357,-0.57464 -4.15496,-2.16232 -4.87166,-4.62767 -1.45671,-5.0109 3.17692,-9.48241 8.33805,-8.04634 2.43042,0.67626 4.51329,3.61307 4.5066,6.35423 -0.01,4.06715 -4.00894,7.23697 -7.97299,6.31978 z m 2.89589,-4.90222 c 1.58847,-1.69085 -0.0288,-4.32574 -2.15816,-3.51615 -1.60284,0.6094 -2.00038,2.33409 -0.81194,3.52253 0.90844,0.90844 2.1131,0.90585 2.9701,-0.006 z"
       id="path3"
       inkscape:export-filename="landinpage.svg"
       inkscape:export-xdpi="96"
       inkscape:export-ydpi="96" /></g></svg>
