<?xml version="1.0" encoding="UTF-8" standalone="no"?>
<!-- Created with Inkscape (http://www.inkscape.org/) -->

<svg
   width="135.46887mm"
   height="135.45119mm"
   viewBox="0 0 135.46887 135.45119"
   version="1.1"
   id="svg1"
   xml:space="preserve"
   sodipodi:docname="landingpage.svg"
   xmlns:inkscape="http://www.inkscape.org/namespaces/inkscape"
   xmlns:sodipodi="http://sodipodi.sourceforge.net/DTD/sodipodi-0.dtd"
   xmlns="http://www.w3.org/2000/svg"
   xmlns:svg="http://www.w3.org/2000/svg"><sodipodi:namedview
     id="namedview1"
     pagecolor="#505050"
     bordercolor="#eeeeee"
     borderopacity="1"
     inkscape:showpageshadow="0"
     inkscape:pageopacity="0"
     inkscape:pagecheckerboard="0"
     inkscape:deskcolor="#505050"
     inkscape:document-units="mm"><inkscape:page
       x="4.9438216e-14"
       y="0"
       width="135.46886"
       height="135.45119"
       id="page1"
       margin="0"
       bleed="0" /></sodipodi:namedview><defs
     id="defs1" /><g
     inkscape:label="Camada 1"
     inkscape:groupmode="layer"
     id="layer1"
     transform="translate(-173.35111,187.83958)"><path
       style="fill:#45b8ed;fill-opacity:1"
       d="m 181.8852,-52.781132 c -0.76389,-0.2057 -1.88625,-0.62773 -2.49413,-0.93785 -1.53394,-0.78255 -3.70029,-2.89804 -4.53134,-4.42496 -1.60356,-2.94627 -1.50752,1.00103 -1.50752,-61.961698 0,-62.96273 -0.096,-59.01543 1.50752,-61.9617 0.82936,-1.52382 2.99656,-3.64198 4.52309,-4.42076 2.78953,-1.42311 -0.50518,-1.35087 61.61299,-1.35087 41.54994,0 57.8668,0.0824 58.88034,0.29749 2.95444,0.62686 6.029,2.8905 7.43519,5.47414 1.60356,2.94627 1.50752,-1.00103 1.50752,61.9617 0,62.962728 0.096,59.015428 -1.50752,61.961698 -1.40619,2.58363 -4.48075,4.84727 -7.43519,5.47414 -1.01506,0.21537 -17.30166,0.29268 -59.00207,0.28008 -48.76268,-0.0147 -57.81309,-0.0748 -58.98888,-0.39141 z m 118.59929,-4.79351 c 1.24761,-0.67445 2.52384,-1.97167 3.21152,-3.26434 0.47495,-0.89278 0.49512,-2.78631 0.56141,-52.718218 l 0.0688,-51.79219 H 244.0485 c -60.18626,0 -60.2786,-8.2e-4 -60.85358,-0.53649 -1.16337,-1.08385 -0.92296,-2.91141 0.47608,-3.61906 0.52736,-0.26674 12.82855,-0.33536 60.67849,-0.33847 l 60.01703,-0.004 -0.0911,-4.29948 c -0.0753,-3.55732 -0.17572,-4.45932 -0.58155,-5.22552 -0.68356,-1.29057 -1.96014,-2.589 -3.20937,-3.26433 l -1.05833,-0.57213 h -58.34063 c -56.39086,0 -58.37157,0.0165 -59.26667,0.49265 -1.29266,0.68768 -2.58988,1.96391 -3.26433,3.21152 l -0.57213,1.05833 v 58.34063 c 0,56.390858 0.0165,58.371568 0.49265,59.266658 0.95163,1.78884 2.57862,3.16526 4.40043,3.72275 0.36475,0.11162 26.73786,0.18286 58.60692,0.15832 l 57.94375,-0.0446 z m -89.95833,-4.28975 c -0.43656,-0.27185 -1.83554,-1.56577 -3.10885,-2.87536 -2.11507,-2.17535 -2.31511,-2.47108 -2.31511,-3.42259 0,-0.97447 0.18477,-1.22357 2.87088,-3.87052 2.5392,-2.50219 2.97711,-2.82903 3.79034,-2.82903 1.40603,0 2.20616,1.04285 2.1005,2.7377 -0.0168,0.26881 -0.80137,1.28726 -1.74358,2.26323 l -1.71311,1.77447 1.71311,1.69789 c 1.39649,1.38407 1.71311,1.85422 1.71311,2.54378 0,1.20899 -0.22742,1.65012 -1.07725,2.08959 -0.97095,0.50209 -1.2721,0.48735 -2.23004,-0.10916 z m 58.46627,-0.10381 c -0.57958,-0.49854 -0.76065,-0.88435 -0.76065,-1.62079 0,-0.83744 0.23536,-1.20418 1.76245,-2.74627 l 1.76246,-1.77976 -1.70954,-1.75694 c -1.53054,-1.57298 -1.70953,-1.86877 -1.70953,-2.82506 0,-0.83878 0.14969,-1.18588 0.69714,-1.6165 1.39117,-1.0943 2.0204,-0.81636 5.16323,2.28066 2.69331,2.65404 2.87088,2.89393 2.87088,3.87835 0,0.97605 -0.18938,1.24088 -2.71198,3.79242 -3.13694,3.17293 -4.00725,3.56131 -5.36446,2.39389 z m -46.83379,-4.14962 c -0.73884,-0.29948 -1.14955,-0.84556 -1.3356,-1.77582 -0.23135,-1.15677 0.92468,-2.47034 2.17408,-2.47034 2.08939,0 2.99576,2.46966 1.39937,3.81294 -0.84494,0.71097 -1.32389,0.80369 -2.23785,0.43322 z m 8.92712,-0.0254 c -0.70664,-0.28359 -1.44868,-1.85796 -1.20296,-2.5523 0.59743,-1.68821 2.4822,-2.21094 3.67414,-1.019 1.09173,1.09173 0.80773,2.79628 -0.58995,3.54068 -0.67384,0.35889 -1.0481,0.36499 -1.88123,0.0306 z m 9.07373,-0.0283 c -0.85914,-0.46992 -1.19062,-1.05655 -1.19062,-2.10709 0,-0.75282 0.16624,-1.11933 0.69714,-1.53693 1.43376,-1.1278 3.53619,-0.27547 3.53619,1.43356 0,1.24945 -0.22094,1.68607 -1.07725,2.12889 -0.88295,0.45659 -1.25181,0.4719 -1.96546,0.0816 z m 8.99584,0 c -1.36813,-0.74831 -1.62887,-2.45529 -0.5412,-3.54296 1.71574,-1.71574 4.40372,0.15537 3.46178,2.40975 -0.5214,1.2479 -1.80226,1.74488 -2.92058,1.13321 z m 8.64711,-0.35602 c -1.62303,-1.36569 -0.73976,-3.83638 1.37151,-3.83638 1.26405,0 2.40559,1.31279 2.16922,2.49464 -0.0892,0.44595 -0.36804,1.0167 -0.61967,1.26833 -0.83734,0.83734 -1.97908,0.86603 -2.92106,0.0734 z m -53.96542,-13.14242 c -2.15605,-0.48241 -3.49732,-2.59002 -3.49732,-5.49555 v -1.07346 h -7.12652 c -4.4058,0 -7.41088,-0.10774 -7.87135,-0.28221 -1.05918,-0.40131 -1.92862,-1.27153 -2.49372,-2.49592 -0.46506,-1.00765 -0.48845,-2.38879 -0.48845,-28.839578 0,-26.56839 0.0216,-27.8288 0.49456,-28.8703 0.272,-0.59898 0.94447,-1.43242 1.49436,-1.85209 l 0.99981,-0.76303 7.49566,-0.0813 7.49565,-0.0813 v -3.3073 c 0,-1.81902 0.13662,-3.84987 0.3036,-4.513 0.39535,-1.57009 1.65287,-2.82761 3.22296,-3.22296 1.71932,-0.43293 72.71923,-0.43293 74.43855,0 1.6738,0.42147 2.86691,1.67373 3.23647,3.39691 0.15955,0.74394 0.29009,2.76871 0.29009,4.49949 v 3.14686 l 7.49565,0.0813 7.49566,0.0813 0.99981,0.76304 c 0.54989,0.41967 1.22236,1.2531 1.49436,1.85208 0.47297,1.0415 0.49456,2.30191 0.49456,28.8703 0,26.450788 -0.0234,27.831928 -0.48845,28.839578 -0.5651,1.22439 -1.43454,2.09461 -2.49372,2.49592 -0.46047,0.17447 -3.46555,0.28221 -7.87135,0.28221 h -7.12652 v 0.91301 c 0,3.17372 -1.29509,5.1602 -3.70051,5.67607 -1.74641,0.37453 -72.61578,0.35539 -74.29384,-0.0201 z m 73.43442,-9.47943 0.0703,-5.15938 -7.93974,-7.933938 -7.93973,-7.93395 -8.54413,8.52926 c -7.95746,7.943608 -8.60707,8.528678 -9.46076,8.520838 -1.01359,-0.009 -1.59946,-0.35871 -2.06402,-1.23096 -0.56305,-1.05715 -0.33869,-1.67794 1.18296,-3.27323 1.36516,-1.43123 1.4599,-1.60729 1.12448,-2.08958 -0.91355,-1.313568 -15.99786,-19.019598 -16.16749,-18.977478 -0.10494,0.0261 -5.25439,6.03432 -11.44323,13.35168 l -11.25246,13.304308 v 3.91566 c 0,2.15361 0.0798,3.99546 0.17733,4.09299 0.0975,0.0975 16.37933,0.14714 36.18177,0.11024 l 36.00444,-0.0671 z M 200.3397,-117.85668 v -27.1198 h -6.74687 -6.74687 v 27.1198 27.119788 h 6.74687 6.74687 z m 94.98541,0 v -27.1198 h -6.74687 -6.74687 v 27.1198 27.119788 h 6.74687 6.74687 z m -79.58836,5.95854 c 7.10508,-8.39731 10.64131,-12.38072 11.1495,-12.55944 0.59134,-0.20797 0.92925,-0.15473 1.64497,0.25917 0.51884,0.30005 4.66494,4.97996 9.77902,11.03808 4.88305,5.78446 8.96053,10.51719 9.06107,10.51719 0.10054,0 3.10839,-2.91703 6.68411,-6.48229 6.68782,-6.66826 6.94907,-6.86355 8.28032,-6.18981 0.31786,0.16086 3.82292,3.52412 7.78904,7.4739 l 7.21112,7.18142 -0.0674,-27.78067 -0.0674,-27.78068 h -36.11556 -36.11563 l -0.0673,28.39902 c -0.0417,17.59407 0.0271,28.365298 0.18079,28.310408 0.13646,-0.0487 4.93049,-5.622558 10.65339,-12.386298 z m 35.08951,-4.51149 c -0.77546,-0.77546 -0.79857,-0.86802 -0.70066,-2.80684 0.11871,-2.35082 0.63018,-3.00584 2.34713,-3.00584 1.52205,0 2.10655,0.88486 2.10655,3.18905 0,2.1945 -0.12454,2.54578 -1.07725,3.03845 -1.11811,0.57819 -1.78636,0.4746 -2.67577,-0.41482 z m -0.55056,-8.46561 c -2.51696,-0.6339 -4.87824,-2.55174 -6.02633,-4.89459 -0.47873,-0.97693 -0.66852,-1.86139 -0.73659,-3.43268 -0.12695,-2.93089 0.56953,-4.7589 2.57867,-6.76804 2.02864,-2.02864 3.85055,-2.71864 6.76804,-2.5632 4.14842,0.22103 7.17859,2.72539 8.21734,6.7914 1.36633,5.34831 -2.535,10.62432 -8.13745,11.00479 -0.91706,0.0623 -2.11572,3.2e-4 -2.66368,-0.13768 z m 3.90671,-4.72384 c 4.47587,-2.05533 3.02393,-8.49822 -1.91513,-8.49822 -1.53296,0 -2.75538,0.69684 -3.72415,2.12296 -0.52501,0.77286 -0.60908,1.17507 -0.52642,2.5185 0.12005,1.95104 0.87233,3.14038 2.43536,3.85022 1.36805,0.6213 2.3877,0.62308 3.73034,0.007 z m -19.11251,-2.47895 c -1.02968,-1.11123 -0.80596,-2.8514 0.45008,-3.50092 0.93709,-0.48459 3.33128,-0.52034 4.23464,-0.0632 1.42999,0.72358 1.68632,2.48114 0.53044,3.63702 -0.43119,0.43118 -0.88411,0.52244 -2.59299,0.52244 -1.8074,0 -2.14065,-0.0757 -2.62217,-0.59531 z m 29.38451,0 c -0.29472,-0.32743 -0.60811,-0.80032 -0.69641,-1.05088 -0.26213,-0.7438 0.34868,-2.04563 1.15558,-2.46289 0.91605,-0.47371 3.31641,-0.50244 4.20979,-0.0504 1.42999,0.72358 1.68631,2.48114 0.53043,3.63702 -0.43118,0.43118 -0.8841,0.52244 -2.59298,0.52244 -1.81207,0 -2.13744,-0.0743 -2.60641,-0.59531 z m -13.59964,-13.67184 c -0.6865,-0.6865 -0.7734,-0.95555 -0.7734,-2.39439 0,-1.70326 0.47645,-3.00384 1.20248,-3.28244 0.92043,-0.35321 2.0069,-0.15403 2.646,0.48507 0.57545,0.57545 0.64943,0.87824 0.64943,2.65786 0,1.77963 -0.074,2.08241 -0.64943,2.65786 -0.91032,0.91032 -2.08829,0.86283 -3.07508,-0.12396 z m -67.82175,-29.4094 c -0.89763,-1.06678 -0.87076,-1.95129 0.0884,-2.91047 0.95917,-0.95918 1.84369,-0.98605 2.91046,-0.0884 0.6199,0.5216 0.81406,0.9031 0.81406,1.59952 0,2.08939 -2.46966,2.99576 -3.81294,1.39936 z m 9.19873,0.18688 c -1.35911,-1.16907 -0.78919,-3.35335 0.97612,-3.74108 2.1089,-0.46319 3.52075,2.18255 1.98449,3.71881 -0.83645,0.83645 -2.00386,0.84522 -2.96061,0.0223 z m 9.03292,0.0319 c -1.28519,-1.10555 -0.73609,-3.40502 0.89884,-3.76411 0.88707,-0.19483 2.24812,0.38217 2.50976,1.06398 0.89142,2.32301 -1.57539,4.27709 -3.4086,2.70013 z m 58.70041,-0.0319 c -0.9429,-0.81105 -1.00813,-2.28054 -0.13979,-3.14903 l 0.58934,-0.58943 18.92564,-0.0713 18.92564,-0.0713 0.77856,0.77856 c 0.96448,0.96449 0.99281,1.84696 0.0936,2.91563 l -0.68498,0.81405 h -18.87945 -18.87943 z"
       id="path1" /></g></svg>
