<?xml version="1.0" encoding="UTF-8" standalone="no"?>
<!-- Created with Inkscape (http://www.inkscape.org/) -->

<svg
   width="135.42609mm"
   height="107.94432mm"
   viewBox="0 0 135.42608 107.94432"
   version="1.1"
   id="svg1"
   xml:space="preserve"
   sodipodi:docname="landingpage.svg"
   xmlns:inkscape="http://www.inkscape.org/namespaces/inkscape"
   xmlns:sodipodi="http://sodipodi.sourceforge.net/DTD/sodipodi-0.dtd"
   xmlns="http://www.w3.org/2000/svg"
   xmlns:svg="http://www.w3.org/2000/svg"><sodipodi:namedview
     id="namedview1"
     pagecolor="#505050"
     bordercolor="#eeeeee"
     borderopacity="1"
     inkscape:showpageshadow="0"
     inkscape:pageopacity="0"
     inkscape:pagecheckerboard="0"
     inkscape:deskcolor="#505050"
     inkscape:document-units="mm"><inkscape:page
       x="-1.0430752e-13"
       y="0"
       width="135.42609"
       height="107.94432"
       id="page1"
       margin="0"
       bleed="0" /></sodipodi:namedview><defs
     id="defs1" /><g
     inkscape:label="Camada 1"
     inkscape:groupmode="layer"
     id="layer1"
     transform="translate(-145.85583,166.9424)"><path
       style="fill:#45b8ed;fill-opacity:1"
       d="m 182.10888,-59.31564 c -0.6675,-0.66751 -0.16117,-3.66845 1.05382,-6.24579 1.37935,-2.926005 4.53246,-5.497455 7.82962,-6.385285 l 1.11781,-0.30099 v -3.95246 -3.95246 l -21.25229,-0.0722 -21.25229,-0.0722 -1.10274,-0.72986 c -0.60651,-0.40143 -1.43118,-1.22615 -1.83261,-1.83271 l -0.72986,-1.10285 -0.0696,-39.004335 c -0.0477,-26.74097 0.0182,-39.3303 0.20957,-40.04108 0.35801,-1.32956 1.68029,-2.83235 3.03275,-3.44676 1.01441,-0.46084 3.36633,-0.48207 54.00394,-0.48763 39.29497,-0.004 53.17518,0.0728 53.84271,0.29924 1.40436,0.47633 2.29061,1.21167 3.08117,2.55651 l 0.72862,1.23948 0.0766,14.75052 0.0766,14.75052 h 7.4969 c 8.08714,0 8.86088,0.1061 10.63357,1.4582 0.47164,0.35974 1.16605,1.28467 1.54313,2.0554 l 0.68561,1.40133 -0.0698,27.79201 -0.0698,27.792015 -0.80074,1.29509 c -0.49615,0.80244 -1.29334,1.59969 -2.09569,2.09583 l -1.29494,0.80075 -17.56047,0.0734 c -11.39956,0.0477 -17.91396,-0.0218 -18.568,-0.19787 -1.4175,-0.3817 -2.6546,-1.28187 -3.59116,-2.61309 -0.79221,-1.12605 -0.80479,-1.19619 -0.88925,-4.95702 l -0.0857,-3.81482 h -10.56381 -10.56381 v 3.94773 3.94773 l 0.85989,0.1808 c 4.29615,0.90333 8.3114,5.222295 9.19025,9.885385 0.361,1.91543 0.34064,2.30145 -0.14717,2.78926 -0.37102,0.37102 -2.68626,0.41577 -21.51062,0.41577 -16.05434,0 -21.17073,-0.0759 -21.41236,-0.3175 z m 29.05126,-17.012715 v -3.83646 h -7.54063 -7.54062 v 3.83646 3.83646 h 7.54062 7.54063 z m 66.08122,-24.540105 -0.0677,-21.76197 h -18.38855 -18.38854 l -0.0677,21.76197 -0.0677,21.761985 h 18.52391 18.52391 z m -13.98603,11.962145 c -0.22601,-0.12648 -1.46487,-1.30701 -2.75303,-2.6234 l -2.34209,-2.39343 h -5.62591 c -5.56478,0 -5.63397,-0.007 -6.36826,-0.63822 l -0.74236,-0.63822 -0.0774,-7.819825 c -0.085,-8.59177 -0.016,-9.04769 1.46244,-9.66009 0.5431,-0.22496 3.92953,-0.28965 12.3387,-0.2357 l 11.59015,0.0743 0.63836,0.74235 0.63837,0.74236 v 7.9431 7.943103 l -0.7734,0.77339 c -0.76171,0.76172 -0.81767,0.7734 -3.70417,0.7734 h -2.93077 v 2.37194 c 0,2.00134 -0.0734,2.41123 -0.46985,2.6234 -0.27272,0.14595 -0.64227,0.15497 -0.88078,0.0215 z m 2.77582,-11.697565 c 0.21282,-0.33757 0.21281,-0.58847 -2e-5,-0.92604 -0.26466,-0.41976 -0.97176,-0.46958 -7.5696,-0.53328 -6.40303,-0.0618 -7.31988,-0.0194 -7.62888,0.3529 -0.47586,0.57338 -0.0287,1.25339 0.96932,1.47423 0.421,0.0931 3.72912,0.15268 7.35137,0.13229 5.96058,-0.0336 6.61363,-0.081 6.87781,-0.5001 z m -2e-5,-4.76249 c 0.21284,-0.33759 0.21284,-0.58846 0,-0.92604 -0.26453,-0.41958 -0.96891,-0.46964 -7.50696,-0.53349 -7.42244,-0.0725 -7.94112,-0.009 -7.94112,0.97599 0,1.04097 0.37773,1.08959 7.89966,1.01679 6.57769,-0.0637 7.2838,-0.11355 7.54842,-0.53325 z m -60.74534,19.473215 c 1.54569,-0.98096 2.07178,-3.21923 1.12256,-4.776 -0.6686,-1.09654 -1.80022,-1.66649 -3.30875,-1.66649 -0.99995,0 -1.37326,0.15177 -2.17057,0.88245 -0.83683,0.7669 -0.97683,1.07005 -1.06918,2.3151 -0.12731,1.71663 0.44098,2.81719 1.80743,3.50028 1.0049,0.50236 2.60222,0.38964 3.61851,-0.25534 z m 31.00976,-26.586275 c 0,-11.30307 0.0853,-15.67002 0.32177,-16.47031 0.46991,-1.59046 2.63655,-3.68315 4.22827,-4.08395 0.80435,-0.20254 3.80419,-0.31237 8.53171,-0.31237 h 7.29117 v -14.40479 -14.40479 l -0.58804,-0.41187 c -0.52739,-0.3694 -5.96805,-0.41188 -52.75506,-0.41188 -50.96805,0 -52.18139,0.0116 -52.79166,0.50576 l -0.62462,0.50576 -0.0693,32.10353 c -0.0381,17.65694 -0.0121,32.252635 0.0578,32.434865 0.10112,0.26351 8.95651,0.33133 43.26253,0.33133 h 43.13539 z m -42.15695,2.76948 c -0.097,-0.097 -0.17639,-1.99291 -0.17639,-4.2131 v -4.03672 l -5.14073,-0.0864 c -5.62654,-0.0945 -5.83326,-0.14973 -7.14605,-1.90806 -0.53366,-0.71478 -0.54551,-1.01332 -0.54551,-13.74198 0,-12.53623 0.0193,-13.04405 0.52917,-13.90745 0.29104,-0.49286 0.94402,-1.11794 1.45108,-1.38906 0.87502,-0.46787 1.8977,-0.49292 20.10834,-0.49253 21.39259,4.5e-4 20.35121,-0.0874 21.62854,1.82465 l 0.60059,0.89902 v 12.86344 c 0,11.95282 -0.0342,12.92725 -0.48347,13.76491 -0.9861,1.83869 -1.1719,1.8684 -11.68569,1.8684 h -9.39928 l -4.18459,4.36562 c -4.02041,4.19435 -4.89299,4.85226 -5.55601,4.18924 z m 21.98247,-19.47099 c 0.18191,-0.14364 0.33073,-0.47013 0.33073,-0.72554 0,-1.13299 -0.19337,-1.1474 -12.77498,-0.95183 -10.63394,0.16529 -12.00032,0.23413 -12.2943,0.61946 -0.42767,0.56059 -0.41684,0.73763 0.0752,1.22969 0.35767,0.35767 1.82876,0.38713 12.36928,0.24767 7.21807,-0.0955 12.09451,-0.26188 12.29405,-0.41945 z m -0.085,-8.02048 c 0.22868,-0.22867 0.41577,-0.56205 0.41577,-0.74083 0,-0.92647 -0.44588,-0.96006 -12.7436,-0.96006 -11.99901,0 -12.11129,0.005 -12.4036,0.55118 -0.23533,0.43971 -0.20217,0.65374 0.16399,1.05833 0.43931,0.48544 0.96636,0.50716 12.30532,0.50716 10.41663,0 11.89652,-0.0502 12.26212,-0.41578 z"
       id="path2" /></g></svg>
